STARTFONT 2.1
FONT -Monotype-Book Antiqua-Bold-R-Normal--25-180-100-100-P-123-iso8859-2
SIZE 18 100 100
FONTBOUNDINGBOX 28 31 -3 -8

STARTPROPERTIES 24
FOUNDRY "Monotype"
FAMILY_NAME "Book Antiqua"
WEIGHT_NAME "Bold"
SLANT "R"
SETWIDTH_NAME "Normal"
ADD_STYLE_NAME ""
PIXEL_SIZE 25
POINT_SIZE 180
RESOLUTION_X 100
RESOLUTION_Y 100
SPACING "P"
AVERAGE_WIDTH 123
CHARSET_REGISTRY "iso8859"
CHARSET_ENCODING "2"
FACE_NAME "Book Antiqua Bold ISO Latin2"
_DEC_DEVICE_FONTNAMES "PS=bookantiqua-b-lat2"
COPYRIGHT "Copyright (c) 1994 Monotype Typography Ltd."
CAP_HEIGHT 21
X_HEIGHT 14
WEIGHT 10
QUAD_WIDTH 15
DEFAULT_CHAR 160
FONT_DESCENT 8
FONT_ASCENT 23
ENDPROPERTIES

CHARS 191

STARTCHAR space
ENCODING 32
SWIDTH 250 0
DWIDTH 6 0
BBX 0 0 0 0
BITMAP
ENDCHAR

STARTCHAR exclam
ENCODING 33
SWIDTH 278 0
DWIDTH 7 0
BBX 4 17 1 0
BITMAP
30
F0
F0
F0
F0
60
60
60
60
60
60
60
00
60
F0
F0
60
ENDCHAR

STARTCHAR quotedbl
ENCODING 34
SWIDTH 402 0
DWIDTH 10 0
BBX 9 8 1 9
BITMAP
7300
F780
F780
6300
6300
6300
6300
2100
ENDCHAR

STARTCHAR numbersign
ENCODING 35
SWIDTH 606 0
DWIDTH 15 0
BBX 13 17 1 0
BITMAP
0C30
0C60
0C60
0C60
0860
FFF8
FFF8
1840
18C0
18C0
FFF8
FFF8
30C0
3180
3180
3180
2180
ENDCHAR

STARTCHAR dollar
ENCODING 36
SWIDTH 500 0
DWIDTH 13 0
BBX 11 21 1 -2
BITMAP
0400
0400
1F80
75C0
6440
E440
E400
E400
FC00
7F80
3FC0
0FE0
05E0
04E0
44E0
44C0
C4C0
F580
7F00
0400
0400
ENDCHAR

STARTCHAR percent
ENCODING 37
SWIDTH 889 0
DWIDTH 22 0
BBX 20 19 1 -1
BITMAP
000200
3C0600
4E0400
C60C00
C60800
C61800
C61000
C631E0
C62360
6C6630
384630
00C630
008630
018630
010630
030630
020360
0601C0
040000
ENDCHAR

STARTCHAR ampersand
ENCODING 38
SWIDTH 833 0
DWIDTH 21 0
BBX 18 17 2 0
BITMAP
038000
07C000
08C000
18C000
18C000
1D8000
0F0000
163FC0
3E7FC0
670C00
E78C00
E3CC00
E1F000
F0F840
787FC0
3FDF80
1E0700
ENDCHAR

STARTCHAR quoteright
ENCODING 39
SWIDTH 278 0
DWIDTH 7 0
BBX 5 7 1 11
BITMAP
38
78
70
70
60
C0
C0
ENDCHAR

STARTCHAR parenleft
ENCODING 40
SWIDTH 333 0
DWIDTH 8 0
BBX 6 24 2 -6
BITMAP
0C
18
18
30
70
70
60
E0
E0
E0
E0
E0
E0
E0
E0
E0
E0
70
70
30
30
18
0C
04
ENDCHAR

STARTCHAR parenright
ENCODING 41
SWIDTH 333 0
DWIDTH 8 0
BBX 6 24 0 -6
BITMAP
C0
60
60
30
38
38
18
1C
1C
1C
1C
1C
1C
1C
1C
1C
1C
18
38
30
30
60
C0
40
ENDCHAR

STARTCHAR asterisk
ENCODING 42
SWIDTH 444 0
DWIDTH 11 0
BBX 9 9 1 8
BITMAP
0E00
4E00
EC00
3980
1F80
F880
6C00
4E00
0800
ENDCHAR

STARTCHAR plus
ENCODING 43
SWIDTH 606 0
DWIDTH 15 0
BBX 12 12 2 2
BITMAP
0600
0600
0600
0600
0600
FFF0
FFF0
0600
0600
0600
0600
0600
ENDCHAR

STARTCHAR comma
ENCODING 44
SWIDTH 250 0
DWIDTH 6 0
BBX 6 7 0 -4
BITMAP
3C
38
70
70
60
E0
C0
ENDCHAR

STARTCHAR minus
ENCODING 45
SWIDTH 606 0
DWIDTH 15 0
BBX 13 2 1 7
BITMAP
FFF8
FFF8
ENDCHAR

STARTCHAR period
ENCODING 46
SWIDTH 250 0
DWIDTH 6 0
BBX 4 4 1 0
BITMAP
60
F0
F0
60
ENDCHAR

STARTCHAR slash
ENCODING 47
SWIDTH 296 0
DWIDTH 7 0
BBX 12 23 -3 -5
BITMAP
0070
0070
00E0
00E0
00C0
01C0
0180
0380
0380
0300
0700
0600
0E00
0E00
0C00
1C00
1800
3800
3000
7000
7000
6000
E000
ENDCHAR

STARTCHAR zero
ENCODING 48
SWIDTH 500 0
DWIDTH 13 0
BBX 11 17 1 0
BITMAP
1F80
31C0
71C0
60E0
E0E0
E0E0
E0E0
E0E0
E0E0
E0E0
E0E0
E0E0
E0E0
70C0
71C0
3980
1F00
ENDCHAR

STARTCHAR one
ENCODING 49
SWIDTH 500 0
DWIDTH 13 0
BBX 11 17 0 0
BITMAP
0100
0700
FF00
6700
0700
0700
0700
0700
0700
0700
0700
0700
0700
0700
0700
0F80
3FE0
ENDCHAR

STARTCHAR two
ENCODING 50
SWIDTH 500 0
DWIDTH 13 0
BBX 12 17 0 0
BITMAP
1F00
3FC0
7FE0
61E0
40E0
40E0
00E0
00C0
01C0
0380
0300
0600
0C00
1000
3FF0
7FF0
FFF0
ENDCHAR

STARTCHAR three
ENCODING 51
SWIDTH 500 0
DWIDTH 13 0
BBX 11 17 1 0
BITMAP
1F00
7F80
7FC0
41C0
41C0
0180
0200
1F80
1FC0
01E0
00E0
00E0
80E0
80C0
C1C0
E380
7E00
ENDCHAR

STARTCHAR four
ENCODING 52
SWIDTH 500 0
DWIDTH 13 0
BBX 12 17 0 0
BITMAP
00C0
03C0
07C0
05C0
09C0
1BC0
13C0
33C0
23C0
63C0
4380
FFF0
FFF0
0380
0380
03C0
1FF0
ENDCHAR

STARTCHAR five
ENCODING 53
SWIDTH 500 0
DWIDTH 13 0
BBX 11 17 0 0
BITMAP
7FC0
7FC0
7FC0
6000
6000
6000
6F00
7FC0
7FE0
41E0
00E0
00E0
00E0
80C0
C1C0
6380
7E00
ENDCHAR

STARTCHAR six
ENCODING 54
SWIDTH 500 0
DWIDTH 13 0
BBX 11 17 1 0
BITMAP
0180
0FC0
1C00
3800
7000
7000
F000
E780
EFC0
F1E0
E0E0
E0E0
E0E0
E0E0
70C0
79C0
1F00
ENDCHAR

STARTCHAR seven
ENCODING 55
SWIDTH 500 0
DWIDTH 13 0
BBX 12 17 1 0
BITMAP
FFF0
FFE0
FFE0
8040
80C0
8080
0180
0300
0300
0600
0600
0C00
1C00
1800
3800
3800
7000
ENDCHAR

STARTCHAR eight
ENCODING 56
SWIDTH 500 0
DWIDTH 13 0
BBX 11 17 1 0
BITMAP
1F80
71C0
60C0
E0C0
E0C0
F180
7D00
7F00
1FC0
67C0
E1E0
C0E0
C0E0
C0E0
E0C0
7180
3F00
ENDCHAR

STARTCHAR nine
ENCODING 57
SWIDTH 500 0
DWIDTH 13 0
BBX 11 17 1 0
BITMAP
1F00
71C0
61C0
E0E0
E0E0
E0E0
E0E0
F1E0
7EE0
3CE0
01E0
01C0
01C0
0380
0700
1E00
7000
ENDCHAR

STARTCHAR colon
ENCODING 58
SWIDTH 250 0
DWIDTH 6 0
BBX 4 12 1 0
BITMAP
60
F0
F0
60
00
00
00
00
60
F0
F0
60
ENDCHAR

STARTCHAR semicolon
ENCODING 59
SWIDTH 250 0
DWIDTH 6 0
BBX 6 16 0 -4
BITMAP
18
3C
3C
18
00
00
00
00
04
3C
38
38
70
60
60
C0
ENDCHAR

STARTCHAR less
ENCODING 60
SWIDTH 606 0
DWIDTH 15 0
BBX 13 13 1 2
BITMAP
0018
0078
01F0
07C0
3F00
FC00
F000
FC00
3F00
07C0
01F0
0078
0018
ENDCHAR

STARTCHAR equal
ENCODING 61
SWIDTH 606 0
DWIDTH 15 0
BBX 13 7 1 5
BITMAP
FFF8
FFF8
0000
0000
0000
FFF8
FFF8
ENDCHAR

STARTCHAR greater
ENCODING 62
SWIDTH 606 0
DWIDTH 15 0
BBX 13 13 1 2
BITMAP
C000
F000
7C00
1F00
07E0
01F8
0038
01F8
07E0
1F80
7C00
F000
C000
ENDCHAR

STARTCHAR question
ENCODING 63
SWIDTH 444 0
DWIDTH 11 0
BBX 9 17 1 0
BITMAP
3F00
7F80
4780
8380
0380
0380
0700
0E00
1800
1800
1000
1000
0000
1800
3C00
3C00
1800
ENDCHAR

STARTCHAR at
ENCODING 64
SWIDTH 747 0
DWIDTH 19 0
BBX 18 19 1 -2
BITMAP
03F800
0C0600
180100
300100
60D880
41A880
C33880
863080
863080
8E7080
8E7100
8EA200
CF6640
463880
400080
200100
100200
0E1C00
01E000
ENDCHAR

STARTCHAR A
ENCODING 65
SWIDTH 778 0
DWIDTH 19 0
BBX 18 17 1 0
BITMAP
00C000
01C000
01E000
01E000
03F000
02F000
067800
067800
047800
0C3C00
083C00
1FFE00
101E00
300F00
300F00
700F80
F83FC0
ENDCHAR

STARTCHAR B
ENCODING 66
SWIDTH 667 0
DWIDTH 17 0
BBX 14 17 2 0
BITMAP
FFE0
38F0
3878
3878
3878
3870
38A0
3FC0
38F8
3838
383C
383C
383C
3838
3878
38F0
7FC0
ENDCHAR

STARTCHAR C
ENCODING 67
SWIDTH 722 0
DWIDTH 18 0
BBX 17 17 1 0
BITMAP
03FE00
0F0780
3C0100
780100
780100
700000
F00000
F00000
F00000
F00000
F00000
780000
780000
3C0000
1F0100
0FFF00
01F800
ENDCHAR

STARTCHAR D
ENCODING 68
SWIDTH 833 0
DWIDTH 21 0
BBX 19 17 1 0
BITMAP
FFFE00
781F00
380780
3803C0
3803C0
3801E0
3801E0
3801E0
3801E0
3801E0
3801C0
3801C0
3803C0
380780
380F00
383E00
FFF800
ENDCHAR

STARTCHAR E
ENCODING 69
SWIDTH 611 0
DWIDTH 15 0
BBX 13 17 1 0
BITMAP
FFF8
3818
3808
3800
3800
3820
3820
3FE0
3820
3820
3800
3800
3808
3808
3808
7FF8
FFF8
ENDCHAR

STARTCHAR F
ENCODING 70
SWIDTH 556 0
DWIDTH 14 0
BBX 12 17 1 0
BITMAP
FFF0
7830
3810
3810
3800
3800
3820
3860
3FE0
3860
3820
3800
3800
3800
3800
3800
FF00
ENDCHAR

STARTCHAR G
ENCODING 71
SWIDTH 833 0
DWIDTH 21 0
BBX 18 17 1 0
BITMAP
03FF00
0F0780
3C0180
380180
780080
700000
F00000
F00000
F00000
F00000
F01FC0
780380
780380
3C0380
1E0380
0F0F80
03FE00
ENDCHAR

STARTCHAR H
ENCODING 72
SWIDTH 833 0
DWIDTH 21 0
BBX 20 17 0 0
BITMAP
FF0FF0
3E07C0
1C0380
1C0380
1C0380
1C0380
1C0380
1C0380
1FFF80
1C0380
1C0380
1C0380
1C0380
1C0380
1C0380
3E07C0
FF0FF0
ENDCHAR

STARTCHAR I
ENCODING 73
SWIDTH 389 0
DWIDTH 10 0
BBX 8 17 1 0
BITMAP
FF
7C
38
38
38
38
38
38
38
38
38
38
38
38
38
7C
FF
ENDCHAR

STARTCHAR J
ENCODING 74
SWIDTH 389 0
DWIDTH 10 0
BBX 9 23 0 -6
BITMAP
FF80
3E00
1C00
1C00
1C00
1C00
1C00
1C00
1C00
1C00
1C00
1C00
1C00
1C00
1C00
1C00
1C00
1C00
1C00
1800
B800
F000
C000
ENDCHAR

STARTCHAR K
ENCODING 75
SWIDTH 778 0
DWIDTH 19 0
BBX 17 17 2 0
BITMAP
FE0F80
380C00
381800
383000
386000
38C000
398000
3B8000
3FC000
3BE000
39F000
38F000
387800
383C00
383E00
781F00
FE0F80
ENDCHAR

STARTCHAR L
ENCODING 76
SWIDTH 611 0
DWIDTH 15 0
BBX 13 17 1 0
BITMAP
FF00
3800
3800
3800
3800
3800
3800
3800
3800
3800
3800
3800
3808
3808
3808
7FF8
FFF8
ENDCHAR

STARTCHAR M
ENCODING 77
SWIDTH 1000 0
DWIDTH 25 0
BBX 23 17 1 0
BITMAP
FC007E
7C007C
3E0078
3E00D8
2F00B8
2F01B8
278138
278338
23C238
23C638
21EC38
21EC38
20F838
20F838
207038
70707C
F820FE
ENDCHAR

STARTCHAR N
ENCODING 78
SWIDTH 833 0
DWIDTH 21 0
BBX 19 17 1 0
BITMAP
F807E0
3C0180
3E0180
3F0180
2F0180
278180
27C180
23E180
21F180
20F980
207980
203D80
203F80
201F80
200F80
700780
F80380
ENDCHAR

STARTCHAR O
ENCODING 79
SWIDTH 833 0
DWIDTH 21 0
BBX 19 17 1 0
BITMAP
07FC00
1E0F00
3C0780
7803C0
7001C0
7001E0
F001E0
F001E0
F001E0
F001E0
F001E0
7001C0
7801C0
780380
3C0700
1F0E00
07F800
ENDCHAR

STARTCHAR P
ENCODING 80
SWIDTH 611 0
DWIDTH 15 0
BBX 14 17 1 0
BITMAP
FFF0
3878
383C
383C
383C
383C
3838
3870
3BE0
3800
3800
3800
3800
3800
3800
7C00
FF00
ENDCHAR

STARTCHAR Q
ENCODING 81
SWIDTH 833 0
DWIDTH 21 0
BBX 20 21 1 -4
BITMAP
07FC00
1E0F00
3C0780
7803C0
7001C0
7001E0
F001E0
F001E0
F001E0
F001E0
F001E0
7001C0
7801C0
780380
3C0700
1F0E00
07F800
00F000
03FE10
063FE0
0007C0
ENDCHAR

STARTCHAR R
ENCODING 82
SWIDTH 722 0
DWIDTH 18 0
BBX 16 17 1 0
BITMAP
FFF0
7878
383C
383C
383C
3838
3870
38E0
3BC0
39E0
38F0
38F0
3878
383C
383C
7C1E
FE1F
ENDCHAR

STARTCHAR S
ENCODING 83
SWIDTH 611 0
DWIDTH 15 0
BBX 12 17 2 0
BITMAP
1FC0
78E0
6020
E020
E000
E000
FC00
7FC0
7FE0
0FF0
00F0
0070
8070
8070
C0E0
F1C0
7F00
ENDCHAR

STARTCHAR T
ENCODING 84
SWIDTH 667 0
DWIDTH 17 0
BBX 16 17 1 0
BITMAP
FFFF
8382
8382
8382
0380
0380
0380
0380
0380
0380
0380
0380
0380
0380
0380
07C0
1FF0
ENDCHAR

STARTCHAR U
ENCODING 85
SWIDTH 778 0
DWIDTH 19 0
BBX 18 17 1 0
BITMAP
FF0FC0
7C0380
380100
380100
380100
380100
380100
380100
380100
380100
380100
380100
3C0100
3C0300
3E0E00
1FFC00
07F800
ENDCHAR

STARTCHAR V
ENCODING 86
SWIDTH 778 0
DWIDTH 19 0
BBX 19 17 0 0
BITMAP
FF07E0
3E01C0
3C0180
1E0300
1E0300
0F0200
0F0600
078400
078C00
038C00
03C800
03D800
01F000
01F000
00E000
00E000
006000
ENDCHAR

STARTCHAR W
ENCODING 87
SWIDTH 1000 0
DWIDTH 25 0
BBX 25 17 0 0
BITMAP
FE040F80
7C0E0300
380E0300
381F0200
3C1F0600
3C370600
3C378400
1C678400
1E63CC00
1EC3CC00
1E81C800
0F81F800
0F81F800
0F00F000
0F00F000
0E007000
06007000
ENDCHAR

STARTCHAR X
ENCODING 88
SWIDTH 667 0
DWIDTH 17 0
BBX 16 17 0 0
BITMAP
7C07
7E0E
1E0C
0F18
0F30
07B0
03E0
03C0
01E0
01E0
0370
06F0
0C78
0C7C
183C
301E
F01F
ENDCHAR

STARTCHAR Y
ENCODING 89
SWIDTH 667 0
DWIDTH 17 0
BBX 16 17 0 0
BITMAP
F803
FC06
3C0E
1E0C
1F18
0F18
07B0
07A0
03E0
03C0
01C0
01C0
01C0
01C0
01C0
01C0
07F8
ENDCHAR

STARTCHAR Z
ENCODING 90
SWIDTH 667 0
DWIDTH 17 0
BBX 15 17 1 0
BITMAP
7FFE
7FFE
407C
4078
00F0
01F0
01E0
03C0
0780
0780
0F00
1E00
3E00
3C02
7806
F004
FFFC
ENDCHAR

STARTCHAR bracketleft
ENCODING 91
SWIDTH 333 0
DWIDTH 8 0
BBX 6 23 2 -5
BITMAP
FC
F0
E0
E0
E0
E0
E0
E0
E0
E0
E0
E0
E0
E0
E0
E0
E0
E0
E0
E0
E0
E0
FC
ENDCHAR

STARTCHAR backslash
ENCODING 92
SWIDTH 606 0
DWIDTH 15 0
BBX 13 23 2 -5
BITMAP
E000
E000
6000
7000
3000
3800
1800
1C00
1C00
0E00
0E00
0600
0700
0300
0380
0180
01C0
01C0
00E0
00E0
0060
0070
0038
ENDCHAR

STARTCHAR bracketright
ENCODING 93
SWIDTH 333 0
DWIDTH 8 0
BBX 6 23 0 -5
BITMAP
FC
3C
1C
1C
1C
1C
1C
1C
1C
1C
1C
1C
1C
1C
1C
1C
1C
1C
1C
1C
1C
1C
FC
ENDCHAR

STARTCHAR asciicircum
ENCODING 94
SWIDTH 606 0
DWIDTH 15 0
BBX 13 10 1 7
BITMAP
0700
0780
0F80
0DC0
1DC0
18E0
38E0
3070
7070
E038
ENDCHAR

STARTCHAR underscore
ENCODING 95
SWIDTH 500 0
DWIDTH 13 0
BBX 13 1 0 -3
BITMAP
FFF8
ENDCHAR

STARTCHAR quoteleft
ENCODING 96
SWIDTH 278 0
DWIDTH 7 0
BBX 5 7 1 11
BITMAP
18
18
30
70
70
F0
E0
ENDCHAR

STARTCHAR a
ENCODING 97
SWIDTH 500 0
DWIDTH 13 0
BBX 11 12 1 0
BITMAP
1F00
7F80
4780
0380
0380
1F80
7380
E380
E380
F780
FBE0
3000
ENDCHAR

STARTCHAR b
ENCODING 98
SWIDTH 611 0
DWIDTH 15 0
BBX 14 18 0 0
BITMAP
7800
F800
3800
3800
3800
3800
39F0
3BF8
3C7C
383C
381C
381C
381C
3818
3838
3C30
3FE0
2780
ENDCHAR

STARTCHAR c
ENCODING 99
SWIDTH 444 0
DWIDTH 11 0
BBX 9 12 1 0
BITMAP
0F80
1F80
7180
6080
E000
E000
E000
E000
F000
7800
7F80
1F00
ENDCHAR

STARTCHAR d
ENCODING 100
SWIDTH 611 0
DWIDTH 15 0
BBX 14 18 1 0
BITMAP
0030
01F0
0070
0070
0070
0070
0770
1FF0
70F0
6070
E070
E070
E070
E070
F070
79F0
7F70
3E7C
ENDCHAR

STARTCHAR e
ENCODING 101
SWIDTH 500 0
DWIDTH 13 0
BBX 10 12 1 0
BITMAP
1F00
7380
E1C0
E1C0
E1C0
FFC0
E000
E000
F000
F840
7F80
1F00
ENDCHAR

STARTCHAR f
ENCODING 102
SWIDTH 389 0
DWIDTH 10 0
BBX 9 18 0 0
BITMAP
0380
0780
1880
3800
3800
3800
3800
FF80
3800
3800
3800
3800
3800
3800
3800
3800
FE00
FF00
ENDCHAR

STARTCHAR g
ENCODING 103
SWIDTH 556 0
DWIDTH 14 0
BBX 14 18 1 -6
BITMAP
1FC0
39FC
70E0
70E0
70E0
70E0
79C0
1F00
3000
7FC0
7FF0
3FF8
6038
C038
C030
E070
70E0
3F80
ENDCHAR

STARTCHAR h
ENCODING 104
SWIDTH 611 0
DWIDTH 15 0
BBX 15 18 0 0
BITMAP
3800
F800
3800
3800
3800
3800
39F0
3BF8
3C78
3838
3838
3838
3838
3838
3838
3838
3C38
FE3E
ENDCHAR

STARTCHAR i
ENCODING 105
SWIDTH 333 0
DWIDTH 8 0
BBX 7 18 1 0
BITMAP
30
78
78
30
00
00
18
F8
38
38
38
38
38
38
38
38
7C
FE
ENDCHAR

STARTCHAR j
ENCODING 106
SWIDTH 333 0
DWIDTH 8 0
BBX 6 24 0 -6
BITMAP
18
3C
3C
18
00
00
0C
7C
1C
1C
1C
1C
1C
1C
1C
1C
1C
1C
1C
1C
18
18
30
E0
ENDCHAR

STARTCHAR k
ENCODING 107
SWIDTH 611 0
DWIDTH 15 0
BBX 14 18 0 0
BITMAP
1800
F800
3800
3800
3800
3800
383C
3878
38E0
38C0
3B00
3B80
3BC0
3BE0
39E0
38F0
3878
FE3C
ENDCHAR

STARTCHAR l
ENCODING 108
SWIDTH 333 0
DWIDTH 8 0
BBX 7 18 1 0
BITMAP
18
F8
38
38
38
38
38
38
38
38
38
38
38
38
38
38
38
FE
ENDCHAR

STARTCHAR m
ENCODING 109
SWIDTH 889 0
DWIDTH 22 0
BBX 21 12 1 0
BITMAP
19E3C0
FBF7E0
3CF9E0
3870E0
3870E0
3870E0
3870E0
3870E0
3870E0
3870E0
3870F0
FEFCF8
ENDCHAR

STARTCHAR n
ENCODING 110
SWIDTH 611 0
DWIDTH 15 0
BBX 15 12 0 0
BITMAP
19F0
FBF8
3C78
3838
3838
3838
3838
3838
3838
3838
7C38
FE3E
ENDCHAR

STARTCHAR o
ENCODING 111
SWIDTH 556 0
DWIDTH 14 0
BBX 12 12 1 0
BITMAP
1FC0
79E0
70F0
E0F0
E070
E070
E070
F070
F070
70E0
79E0
1F80
ENDCHAR

STARTCHAR p
ENCODING 112
SWIDTH 611 0
DWIDTH 15 0
BBX 14 18 0 -6
BITMAP
19F0
FBF8
3C3C
383C
381C
381C
381C
3818
3838
3C30
3FE0
3B80
3800
3800
3800
3800
3C00
FE00
ENDCHAR

STARTCHAR q
ENCODING 113
SWIDTH 611 0
DWIDTH 15 0
BBX 14 18 1 -6
BITMAP
0790
1FF0
70F0
7070
E070
E070
E070
E070
F070
79F0
7F70
3E70
0070
0070
0070
0070
0070
01FC
ENDCHAR

STARTCHAR r
ENCODING 114
SWIDTH 389 0
DWIDTH 10 0
BBX 9 12 0 0
BITMAP
0980
FB80
3B80
3C80
3800
3800
3800
3800
3800
3800
3800
FE00
ENDCHAR

STARTCHAR s
ENCODING 115
SWIDTH 444 0
DWIDTH 11 0
BBX 9 12 1 0
BITMAP
3F00
6300
E100
E100
FC00
7F00
3F80
0780
8380
C300
E700
7E00
ENDCHAR

STARTCHAR t
ENCODING 116
SWIDTH 333 0
DWIDTH 8 0
BBX 9 16 0 0
BITMAP
1800
3800
3800
3800
3800
FF80
3800
3800
3800
3800
3800
3800
3800
3C00
3F00
1E00
ENDCHAR

STARTCHAR u
ENCODING 117
SWIDTH 611 0
DWIDTH 15 0
BBX 15 12 0 0
BITMAP
1818
F8F8
3838
3838
3838
3838
3838
3838
3838
3CF8
3FBC
1F3E
ENDCHAR

STARTCHAR v
ENCODING 118
SWIDTH 556 0
DWIDTH 14 0
BBX 13 12 1 0
BITMAP
FCF8
F838
7860
3860
3840
3CC0
1C80
1D80
0F80
0F00
0F00
0600
ENDCHAR

STARTCHAR w
ENCODING 119
SWIDTH 833 0
DWIDTH 21 0
BBX 20 12 0 0
BITMAP
FE31F0
7C30F0
387860
3C7840
1CDCC0
1CDCC0
1C9C80
1F8F80
0F0F80
0F0F00
0E0700
060700
ENDCHAR

STARTCHAR x
ENCODING 120
SWIDTH 500 0
DWIDTH 13 0
BBX 12 12 0 0
BITMAP
3070
F860
7CC0
1F80
0F00
0F00
0780
0F80
1BC0
31E0
70F0
E0E0
ENDCHAR

STARTCHAR y
ENCODING 121
SWIDTH 556 0
DWIDTH 14 0
BBX 14 18 0 -6
BITMAP
FE7C
3C18
3C30
1C30
1E20
0E60
0E40
0FC0
0780
0780
0380
0300
0300
0200
0600
4C00
7C00
7800
ENDCHAR

STARTCHAR z
ENCODING 122
SWIDTH 500 0
DWIDTH 13 0
BBX 12 12 0 0
BITMAP
3FF0
21E0
61C0
03C0
0780
0700
0F00
1E00
1C10
3C10
7830
FFF0
ENDCHAR

STARTCHAR braceleft
ENCODING 123
SWIDTH 310 0
DWIDTH 8 0
BBX 7 23 1 -5
BITMAP
0C
38
30
70
70
30
38
38
38
30
60
C0
60
30
38
38
38
38
78
70
30
38
1E
ENDCHAR

STARTCHAR bar
ENCODING 124
SWIDTH 606 0
DWIDTH 15 0
BBX 2 22 7 -4
BITMAP
C0
C0
C0
C0
C0
C0
C0
C0
C0
C0
C0
C0
C0
C0
C0
C0
C0
C0
C0
C0
C0
C0
ENDCHAR

STARTCHAR braceright
ENCODING 125
SWIDTH 310 0
DWIDTH 8 0
BBX 6 23 1 -5
BITMAP
C0
70
30
38
38
78
78
70
70
30
18
04
18
30
70
70
70
70
38
38
38
30
E0
ENDCHAR

STARTCHAR asciitilde
ENCODING 126
SWIDTH 606 0
DWIDTH 15 0
BBX 13 5 1 6
BITMAP
3800
7E08
FF98
87F8
81F0
ENDCHAR

STARTCHAR space
ENCODING 160
SWIDTH 250 0
DWIDTH 8 0
BBX 0 0 0 0
BITMAP
ENDCHAR

STARTCHAR Aogonek
ENCODING 161
SWIDTH 778 0
DWIDTH 19 0
BBX 19 23 1 -6
BITMAP
00C000
00E000
01E000
01F000
017000
037800
027800
063800
043C00
0C1C00
0FFE00
0FFE00
180F00
100F00
300780
700F80
FC1BE0
000400
000800
001800
001880
001F00
000E00
ENDCHAR

STARTCHAR breve
ENCODING 162
SWIDTH 333 0
DWIDTH 8 0
BBX 8 4 0 13
BITMAP
81
43
7E
1C
ENDCHAR

STARTCHAR Lslash
ENCODING 163
SWIDTH 611 0
DWIDTH 15 0
BBX 14 17 0 0
BITMAP
7F80
3E00
1C00
1C00
1C40
1DC0
1F00
1E00
1C00
7C00
DC00
9C00
1C04
1C04
1C04
3FFC
7FFC
ENDCHAR

STARTCHAR currency
ENCODING 164
SWIDTH 606 0
DWIDTH 15 0
BBX 13 13 1 2
BITMAP
4F10
FFF8
7FF0
7070
E038
E038
E038
E038
F030
7870
7FF0
FFF8
4F10
ENDCHAR

STARTCHAR Lcaron
ENCODING 165
SWIDTH 611 0
DWIDTH 15 0
BBX 13 18 1 0
BITMAP
0078
FF70
3870
3860
38E0
38C0
3980
3800
3800
3800
3800
3800
3800
3808
3808
3808
7FF8
FFF8
ENDCHAR

STARTCHAR Sacute
ENCODING 166
SWIDTH 611 0
DWIDTH 15 0
BBX 12 22 2 0
BITMAP
0380
0700
0E00
1800
0000
1FC0
78E0
6020
E020
E000
E000
FC00
7FC0
7FE0
0FF0
00F0
0070
8070
8070
C0E0
F1C0
7F00
ENDCHAR

STARTCHAR section
ENCODING 167
SWIDTH 500 0
DWIDTH 13 0
BBX 12 22 0 -5
BITMAP
0FC0
1FC0
3040
6040
6000
7000
7C00
3F80
7FE0
61F0
E070
F070
7E60
3FC0
0FE0
01E0
00E0
4060
6060
61C0
7F80
3F00
ENDCHAR

STARTCHAR dieresis
ENCODING 168
SWIDTH 333 0
DWIDTH 8 0
BBX 8 3 0 13
BITMAP
E7
E7
E7
ENDCHAR

STARTCHAR Scaron
ENCODING 169
SWIDTH 611 0
DWIDTH 15 0
BBX 12 22 2 0
BITMAP
30C0
1B00
0F00
0600
0000
1FC0
78E0
6020
E020
E000
E000
FC00
7FC0
7FE0
0FF0
00F0
0070
8070
8070
C0E0
F1C0
7F00
ENDCHAR

STARTCHAR Scommaaccent
ENCODING 170
SWIDTH 611 0
DWIDTH 15 0
BBX 12 23 2 -6
BITMAP
1FC0
78E0
6020
E020
E000
E000
FC00
7FC0
7FE0
0FF0
00F0
0070
8070
8070
C0E0
F1C0
7F00
0000
0100
0600
0600
0C00
0800
ENDCHAR

STARTCHAR Tcaron
ENCODING 171
SWIDTH 667 0
DWIDTH 17 0
BBX 16 23 1 0
BITMAP
0830
0460
06C0
0380
0000
0000
FFFF
8382
8382
8382
0380
0380
0380
0380
0380
0380
0380
0380
0380
0380
0380
07C0
1FF0
ENDCHAR

STARTCHAR Zacute
ENCODING 172
SWIDTH 667 0
DWIDTH 17 0
BBX 15 22 1 0
BITMAP
00C0
01C0
0300
0C00
0000
7FFE
7FFE
407C
4078
00F0
01F0
01E0
03C0
0780
0780
0F00
1E00
3E00
3C02
7806
F004
FFFC
ENDCHAR

STARTCHAR hyphen
ENCODING 173
SWIDTH 333 0
DWIDTH 8 0
BBX 8 3 0 5
BITMAP
7F
7F
FF
ENDCHAR

STARTCHAR Zcaron
ENCODING 174
SWIDTH 667 0
DWIDTH 17 0
BBX 15 22 1 0
BITMAP
1860
0CC0
0780
0300
0000
7FFE
7FFE
407C
4078
00F0
01F0
01E0
03C0
0780
0780
0F00
1E00
3E00
3C02
7806
F004
FFFC
ENDCHAR

STARTCHAR Zdotaccent
ENCODING 175
SWIDTH 667 0
DWIDTH 17 0
BBX 15 22 1 0
BITMAP
0300
0380
0300
0000
0000
7FFE
7FFE
407C
4078
00F0
01F0
01E0
03C0
0780
0780
0F00
1E00
3E00
3C02
7806
F004
FFFC
ENDCHAR

STARTCHAR degree
ENCODING 176
SWIDTH 396 0
DWIDTH 10 0
BBX 7 7 1 10
BITMAP
7C
C6
82
82
C2
C6
7C
ENDCHAR

STARTCHAR aogonek
ENCODING 177
SWIDTH 500 0
DWIDTH 13 0
BBX 11 18 1 -6
BITMAP
1F00
7F80
4780
0380
0380
1F80
7380
E380
E380
F780
FBE0
3080
0100
0200
0600
0620
07C0
0380
ENDCHAR

STARTCHAR ogonek
ENCODING 178
SWIDTH 333 0
DWIDTH 8 0
BBX 6 7 2 -7
BITMAP
18
20
40
C0
C4
F8
70
ENDCHAR

STARTCHAR lslash
ENCODING 179
SWIDTH 333 0
DWIDTH 8 0
BBX 7 18 1 0
BITMAP
18
F8
38
38
38
3A
3E
3C
38
78
F8
B8
38
38
38
38
38
FE
ENDCHAR

STARTCHAR acute
ENCODING 180
SWIDTH 333 0
DWIDTH 8 0
BBX 6 4 1 13
BITMAP
0C
1C
38
E0
ENDCHAR

STARTCHAR lcaron
ENCODING 181
SWIDTH 449 0
DWIDTH 11 0
BBX 11 18 1 0
BITMAP
18E0
F8C0
3980
3980
3B00
3800
3800
3800
3800
3800
3800
3800
3800
3800
3800
3800
3800
FE00
ENDCHAR

STARTCHAR sacute
ENCODING 182
SWIDTH 444 0
DWIDTH 11 0
BBX 9 17 1 0
BITMAP
0600
0E00
1800
3000
0000
3F00
6300
E100
E100
FC00
7F00
3F80
0780
8380
C300
E700
7E00
ENDCHAR

STARTCHAR caron
ENCODING 183
SWIDTH 333 0
DWIDTH 8 0
BBX 8 4 0 13
BITMAP
C3
66
3C
18
ENDCHAR

STARTCHAR commaaccent
ENCODING 184
SWIDTH 333 0
DWIDTH 8 0
BBX 5 7 1 -8
BITMAP
08
38
38
30
70
60
C0
ENDCHAR

STARTCHAR scaron
ENCODING 185
SWIDTH 444 0
DWIDTH 11 0
BBX 9 17 1 0
BITMAP
6300
3600
1C00
1800
0000
3F00
6300
E100
E100
FC00
7F00
3F80
0780
8380
C300
E700
7E00
ENDCHAR

STARTCHAR scommaaccent
ENCODING 186
SWIDTH 444 0
DWIDTH 11 0
BBX 9 18 1 -6
BITMAP
3F00
6300
E100
E100
FC00
7F00
3F80
0780
8380
C300
E700
7E00
0000
0400
1C00
1800
1800
3000
ENDCHAR

STARTCHAR tcaron
ENCODING 187
SWIDTH 420 0
DWIDTH 10 0
BBX 11 19 0 0
BITMAP
0020
00C0
00C0
1980
3980
3800
3800
3800
FF80
3800
3800
3800
3800
3800
3800
3800
3C00
3F00
1E00
ENDCHAR

STARTCHAR zacute
ENCODING 188
SWIDTH 500 0
DWIDTH 13 0
BBX 12 18 0 0
BITMAP
0100
0380
0700
1C00
0000
0000
3FF0
21E0
61C0
03C0
0780
0700
0F00
1E00
1C10
3C10
7830
FFF0
ENDCHAR

STARTCHAR hungarumlaut
ENCODING 189
SWIDTH 333 0
DWIDTH 8 0
BBX 10 4 -1 13
BITMAP
18C0
39C0
3300
C600
ENDCHAR

STARTCHAR zcaron
ENCODING 190
SWIDTH 500 0
DWIDTH 13 0
BBX 12 18 0 0
BITMAP
2040
1880
0F00
0700
0600
0000
3FF0
21E0
61C0
03C0
0780
0700
0F00
1E00
1C10
3C10
7830
FFF0
ENDCHAR

STARTCHAR zdotaccent
ENCODING 191
SWIDTH 500 0
DWIDTH 13 0
BBX 12 17 0 0
BITMAP
0700
0700
0700
0000
0000
3FF0
21E0
61C0
03C0
0780
0700
0F00
1E00
1C10
3C10
7830
FFF0
ENDCHAR

STARTCHAR Racute
ENCODING 192
SWIDTH 722 0
DWIDTH 18 0
BBX 16 23 1 0
BITMAP
0040
00E0
01C0
0300
0400
0000
FFF0
7878
383C
383C
383C
3838
3870
38E0
3BC0
39E0
38F0
38F0
3878
383C
383C
7C1E
FE1F
ENDCHAR

STARTCHAR Aacute
ENCODING 193
SWIDTH 778 0
DWIDTH 19 0
BBX 18 22 1 0
BITMAP
003000
007000
00C000
030000
000000
00C000
01C000
01E000
01E000
037000
02F000
067800
047800
0C3800
083C00
0FFC00
1FFE00
101E00
300F00
300F00
700F80
F83FC0
ENDCHAR

STARTCHAR Acircumflex
ENCODING 194
SWIDTH 778 0
DWIDTH 19 0
BBX 18 22 1 0
BITMAP
00C000
01E000
033000
061800
000000
00C000
01C000
01E000
01E000
037000
02F000
067800
047800
0C3800
083C00
0FFC00
1FFE00
101E00
300F00
300F00
700F80
F83FC0
ENDCHAR

STARTCHAR Abreve
ENCODING 195
SWIDTH 778 0
DWIDTH 19 0
BBX 18 22 1 0
BITMAP
040800
021000
03F000
01E000
000000
00C000
01C000
01E000
01E000
037000
02F000
067800
047800
0C3800
083C00
0FFC00
1FFE00
101E00
300F00
300F00
700F80
F83FC0
ENDCHAR

STARTCHAR Adieresis
ENCODING 196
SWIDTH 778 0
DWIDTH 19 0
BBX 18 21 1 0
BITMAP
073800
073800
073800
000000
00C000
00C000
01E000
01E000
037000
02F000
067800
067800
043800
083C00
0FFC00
1FFE00
101E00
300F00
300F00
700F80
FC3FC0
ENDCHAR

STARTCHAR Lacute
ENCODING 197
SWIDTH 611 0
DWIDTH 15 0
BBX 13 23 1 0
BITMAP
0080
0380
0700
1C00
0000
0000
FF00
3800
3800
3800
3800
3800
3800
3800
3800
3800
3800
3800
3808
3808
3808
7FF8
FFF8
ENDCHAR

STARTCHAR Cacute
ENCODING 198
SWIDTH 722 0
DWIDTH 18 0
BBX 17 22 1 0
BITMAP
006000
00E000
018000
060000
000000
03FE00
0F0780
3C0100
780100
780100
700000
F00000
F00000
F00000
F00000
F00000
780000
780000
3C0000
1F0100
0FFF00
01F800
ENDCHAR

STARTCHAR Ccedilla
ENCODING 199
SWIDTH 722 0
DWIDTH 18 0
BBX 17 23 1 -6
BITMAP
03FE00
0F0780
3C0100
780100
780100
700000
F00000
F00000
F00000
F00000
F00000
780000
780000
3C0000
1F0180
0FFF00
01F800
004000
00F000
003800
001800
021800
01F000
ENDCHAR

STARTCHAR Ccaron
ENCODING 200
SWIDTH 722 0
DWIDTH 18 0
BBX 17 22 1 0
BITMAP
0C3000
036000
01C000
018000
000000
03FE00
0F0780
3C0100
780100
780100
700000
F00000
F00000
F00000
F00000
F00000
780000
780000
3C0000
1F0100
0FFF00
01F800
ENDCHAR

STARTCHAR Eacute
ENCODING 201
SWIDTH 611 0
DWIDTH 15 0
BBX 13 23 1 0
BITMAP
0080
0380
0700
1C00
0000
0000
FFF8
3818
3808
3800
3800
3820
3820
3FE0
3820
3820
3800
3800
3808
3808
3808
7FF8
FFF8
ENDCHAR

STARTCHAR Eogonek
ENCODING 202
SWIDTH 611 0
DWIDTH 15 0
BBX 13 23 1 -6
BITMAP
FFF8
3808
3808
3800
3800
3820
3820
3FE0
3820
3820
3800
3800
3808
3808
3808
7FF8
FFF8
0040
0080
0180
0188
01F0
00E0
ENDCHAR

STARTCHAR Edieresis
ENCODING 203
SWIDTH 611 0
DWIDTH 15 0
BBX 13 22 2 0
BITMAP
39C0
39C0
39C0
0000
0000
FFF0
3810
3810
3800
3800
3820
3860
3FE0
3860
3820
3800
3800
3808
3818
3818
7FF0
FFF0
ENDCHAR

STARTCHAR Ecaron
ENCODING 204
SWIDTH 611 0
DWIDTH 15 0
BBX 13 23 1 0
BITMAP
3040
1880
0D80
0700
0000
0000
FFF8
3818
3808
3800
3800
3820
3820
3FE0
3820
3820
3800
3800
3808
3808
3808
7FF8
FFF8
ENDCHAR

STARTCHAR Iacute
ENCODING 205
SWIDTH 389 0
DWIDTH 10 0
BBX 8 22 1 0
BITMAP
0E
1C
30
40
00
FF
7C
38
38
38
38
38
38
38
38
38
38
38
38
38
7C
FF
ENDCHAR

STARTCHAR Icircumflex
ENCODING 206
SWIDTH 389 0
DWIDTH 10 0
BBX 8 22 1 0
BITMAP
38
6C
46
82
00
FF
7C
38
38
38
38
38
38
38
38
38
38
38
38
38
7C
FF
ENDCHAR

STARTCHAR Dcaron
ENCODING 207
SWIDTH 833 0
DWIDTH 21 0
BBX 19 23 1 0
BITMAP
040800
031000
01B000
01E000
00C000
000000
FFFE00
781F00
380780
3803C0
3803C0
3801E0
3801E0
3801E0
3801E0
3801E0
3801C0
3801C0
3803C0
380780
380F00
383E00
FFF800
ENDCHAR

STARTCHAR Dcroat
ENCODING 208
SWIDTH 833 0
DWIDTH 21 0
BBX 19 17 1 0
BITMAP
FFFE00
381F00
380780
3803C0
3803C0
3801E0
3801E0
3801E0
FFC1E0
3801E0
3801E0
3801C0
3803C0
380380
380700
381E00
FFF800
ENDCHAR

STARTCHAR Nacute
ENCODING 209
SWIDTH 833 0
DWIDTH 21 0
BBX 19 22 1 0
BITMAP
007000
00E000
01C000
030000
000000
F807E0
3C0180
3E0180
3F0180
2F0180
278180
27C180
23E180
21F180
20F980
207980
203D80
203F80
201F80
200F80
700780
F80380
ENDCHAR

STARTCHAR Ncaron
ENCODING 210
SWIDTH 833 0
DWIDTH 21 0
BBX 19 22 1 0
BITMAP
061800
013000
01E000
00C000
000000
F807E0
3C0180
3E0180
3F0180
2F0180
278180
27C180
23E180
21F180
20F980
207980
203D80
203F80
201F80
200F80
700780
F80380
ENDCHAR

STARTCHAR Oacute
ENCODING 211
SWIDTH 833 0
DWIDTH 21 0
BBX 19 22 1 0
BITMAP
003000
007000
00C000
010000
000000
07FC00
1E0F00
3C0780
7803C0
7001C0
7001E0
F001E0
F001E0
F001E0
F001E0
F001E0
7001C0
7801C0
780380
3C0700
1F0E00
07F800
ENDCHAR

STARTCHAR Ocircumflex
ENCODING 212
SWIDTH 833 0
DWIDTH 21 0
BBX 19 22 1 0
BITMAP
00E000
01D000
011000
020800
000000
07FC00
1E0F00
3C0780
7803C0
7001C0
7001E0
F001E0
F001E0
F001E0
F001E0
F001E0
7001C0
7801C0
780380
3C0700
1F0E00
07F800
ENDCHAR

STARTCHAR Ohungarumlaut
ENCODING 213
SWIDTH 833 0
DWIDTH 21 0
BBX 19 22 1 0
BITMAP
00CC00
019C00
033000
066000
000000
03FC00
0E0F00
3C0780
3803C0
7001C0
7001E0
F001E0
F001E0
F001E0
F001E0
F001E0
7001C0
7801C0
780380
3C0700
1F0E00
07F800
ENDCHAR

STARTCHAR Odieresis
ENCODING 214
SWIDTH 833 0
DWIDTH 21 0
BBX 19 21 1 0
BITMAP
033800
073800
021800
000000
07FC00
1E1F00
380780
7803C0
7003C0
7001E0
F001E0
F001E0
F001E0
F001E0
F001E0
7001C0
7003C0
780380
3C0700
1E1E00
07F800
ENDCHAR

STARTCHAR multiply
ENCODING 215
SWIDTH 606 0
DWIDTH 15 0
BBX 11 11 2 3
BITMAP
2040
E0E0
71C0
3B80
1F00
0E00
1F00
3B80
F1C0
60E0
2040
ENDCHAR

STARTCHAR Rcaron
ENCODING 216
SWIDTH 722 0
DWIDTH 18 0
BBX 16 23 1 0
BITMAP
0810
0420
03C0
03C0
0180
0000
FFF0
7878
383C
383C
383C
3838
3870
38E0
3BC0
39E0
38F0
38F0
3878
383C
383C
7C1E
FE1F
ENDCHAR

STARTCHAR Uring
ENCODING 217
SWIDTH 778 0
DWIDTH 19 0
BBX 17 23 1 0
BITMAP
01C000
036000
022000
036000
01C000
000000
FE0F80
7C0700
380200
380200
380200
380200
380200
380200
380200
380200
380200
380200
380200
3C0600
3E0C00
1FFC00
07F000
ENDCHAR

STARTCHAR Uacute
ENCODING 218
SWIDTH 778 0
DWIDTH 19 0
BBX 18 22 1 0
BITMAP
003000
00F000
01C000
030000
000000
FF0FC0
7C0380
380100
380100
380100
380100
380100
380100
380100
380100
380100
380100
3C0300
3C0300
3E0600
1FFC00
07F800
ENDCHAR

STARTCHAR Uhungarumlaut
ENCODING 219
SWIDTH 778 0
DWIDTH 19 0
BBX 18 22 1 0
BITMAP
019C00
03B800
063000
0CC000
000000
FF0FC0
7C0380
380100
380100
380100
380100
380100
380100
380100
380100
380100
380100
3C0300
3C0300
3E0600
1FFC00
07F800
ENDCHAR

STARTCHAR Udieresis
ENCODING 220
SWIDTH 778 0
DWIDTH 19 0
BBX 18 21 1 0
BITMAP
073800
073800
073800
000000
FF0FC0
7C0380
380100
380100
380100
380100
380100
380100
380100
380100
380100
380100
3C0300
3C0300
3E0600
1FFC00
07F800
ENDCHAR

STARTCHAR Yacute
ENCODING 221
SWIDTH 667 0
DWIDTH 17 0
BBX 16 22 0 0
BITMAP
00E0
01C0
0300
0400
0000
F803
FC06
3C0E
1E0C
1F18
0F18
07B0
07A0
03E0
03C0
01C0
01C0
01C0
01C0
01C0
01C0
07F8
ENDCHAR

STARTCHAR Tcommaaccent
ENCODING 222
SWIDTH 667 0
DWIDTH 17 0
BBX 16 23 1 -6
BITMAP
FFFF
83C2
8382
8382
0380
0380
0380
0380
0380
0380
0380
0380
0380
0380
0380
07C0
1FF0
0000
0080
0380
0300
0200
0600
ENDCHAR

STARTCHAR germandbls
ENCODING 223
SWIDTH 611 0
DWIDTH 15 0
BBX 14 18 0 0
BITMAP
01E0
07F0
0C38
1C18
3818
3818
3838
78F0
F980
39C0
39E0
39F8
38FC
383C
381C
3918
3910
FFE0
ENDCHAR

STARTCHAR racute
ENCODING 224
SWIDTH 389 0
DWIDTH 10 0
BBX 9 17 0 0
BITMAP
0700
0E00
1C00
3000
0000
0980
FB80
3B80
3C80
3800
3800
3800
3800
3800
3800
3800
FE00
ENDCHAR

STARTCHAR aacute
ENCODING 225
SWIDTH 500 0
DWIDTH 13 0
BBX 11 17 1 0
BITMAP
0300
0700
0C00
1800
0000
1F00
7F80
4780
0380
0380
1F80
7380
E380
E380
F780
FBE0
3000
ENDCHAR

STARTCHAR acircumflex
ENCODING 226
SWIDTH 500 0
DWIDTH 13 0
BBX 11 17 1 0
BITMAP
0C00
0E00
1B00
2180
0000
1E00
7F80
4780
0380
0380
1F80
7380
E380
E380
F780
FBE0
3000
ENDCHAR

STARTCHAR abreve
ENCODING 227
SWIDTH 500 0
DWIDTH 13 0
BBX 11 17 1 0
BITMAP
2080
2100
1F00
0E00
0000
1F00
7F80
4780
0380
0380
1F80
7380
E380
E380
F780
FBE0
3000
ENDCHAR

STARTCHAR adieresis
ENCODING 228
SWIDTH 500 0
DWIDTH 13 0
BBX 11 16 1 0
BITMAP
7380
7380
7380
0000
1F00
7F80
4780
0380
0380
1F80
7380
E380
E380
F780
FBE0
3000
ENDCHAR

STARTCHAR lacute
ENCODING 229
SWIDTH 333 0
DWIDTH 8 0
BBX 7 23 1 0
BITMAP
06
0C
1C
30
40
18
F8
38
38
38
38
38
38
38
38
38
38
38
38
38
38
38
FE
ENDCHAR

STARTCHAR cacute
ENCODING 230
SWIDTH 444 0
DWIDTH 11 0
BBX 9 17 1 0
BITMAP
0700
0E00
1C00
3000
0000
0F80
1F80
7180
6080
E000
E000
E000
E000
F000
7800
7F80
1F00
ENDCHAR

STARTCHAR ccedilla
ENCODING 231
SWIDTH 444 0
DWIDTH 11 0
BBX 10 18 1 -6
BITMAP
0FC0
1FC0
70C0
6080
E000
E000
E000
F000
F000
7800
3FC0
0F00
0400
0F00
0380
0180
2380
1F00
ENDCHAR

STARTCHAR ccaron
ENCODING 232
SWIDTH 444 0
DWIDTH 11 0
BBX 9 17 1 0
BITMAP
4180
3200
1E00
1C00
0000
0F80
1F80
7180
6080
E000
E000
E000
E000
F000
7800
7F80
1F00
ENDCHAR

STARTCHAR eacute
ENCODING 233
SWIDTH 500 0
DWIDTH 13 0
BBX 10 17 1 0
BITMAP
0700
0E00
1C00
3000
0000
1F00
7380
E1C0
E1C0
E1C0
FFC0
E000
E000
F000
F840
7F80
1F00
ENDCHAR

STARTCHAR eogonek
ENCODING 234
SWIDTH 500 0
DWIDTH 13 0
BBX 10 18 1 -6
BITMAP
1F00
7380
E1C0
E1C0
E1C0
FFC0
E000
E000
F000
F840
7F80
1F00
0400
0800
1800
1880
1F00
0E00
ENDCHAR

STARTCHAR edieresis
ENCODING 235
SWIDTH 500 0
DWIDTH 13 0
BBX 10 16 1 0
BITMAP
7380
7380
2100
0000
1F00
3380
61C0
E1C0
E1C0
FFC0
E000
E000
F000
7840
7F80
1F00
ENDCHAR

STARTCHAR ecaron
ENCODING 236
SWIDTH 500 0
DWIDTH 13 0
BBX 10 17 1 0
BITMAP
6180
3600
1C00
0C00
0000
1F00
7380
E1C0
E1C0
E1C0
FFC0
E000
E000
F000
F840
7F80
1F00
ENDCHAR

STARTCHAR iacute
ENCODING 237
SWIDTH 333 0
DWIDTH 8 0
BBX 7 17 1 0
BITMAP
0C
1C
38
60
00
18
F8
38
38
38
38
38
38
38
38
7C
FE
ENDCHAR

STARTCHAR icircumflex
ENCODING 238
SWIDTH 333 0
DWIDTH 8 0
BBX 7 17 1 0
BITMAP
18
38
6C
82
00
08
F8
38
38
38
38
38
38
38
38
3C
FE
ENDCHAR

STARTCHAR dcaron
ENCODING 239
SWIDTH 738 0
DWIDTH 18 0
BBX 17 18 1 0
BITMAP
003380
01F380
007300
007200
007600
007000
077000
1FF000
70F000
607000
E07000
E07000
E07000
E07000
F07000
79F000
7F7000
3E7C00
ENDCHAR

STARTCHAR dcroat
ENCODING 240
SWIDTH 611 0
DWIDTH 15 0
BBX 14 18 1 0
BITMAP
0010
01F0
00F0
0070
07FC
0070
0770
1FF0
70F0
6070
E070
E070
E070
E070
F070
79F0
7F70
3E7C
ENDCHAR

STARTCHAR nacute
ENCODING 241
SWIDTH 611 0
DWIDTH 15 0
BBX 15 17 0 0
BITMAP
00E0
01C0
0300
0C00
0000
19F0
FBF8
3C78
3838
3838
3838
3838
3838
3838
3838
7C38
FE3E
ENDCHAR

STARTCHAR ncaron
ENCODING 242
SWIDTH 611 0
DWIDTH 15 0
BBX 15 17 0 0
BITMAP
1870
06C0
0780
0300
0000
19F0
FBF8
3C78
3838
3838
3838
3838
3838
3838
3838
7C38
FE3E
ENDCHAR

STARTCHAR oacute
ENCODING 243
SWIDTH 556 0
DWIDTH 14 0
BBX 12 17 1 0
BITMAP
0380
0780
0E00
1800
0000
1FC0
79E0
70F0
E0F0
E070
E070
E070
F070
F070
70E0
79E0
1F80
ENDCHAR

STARTCHAR ocircumflex
ENCODING 244
SWIDTH 556 0
DWIDTH 14 0
BBX 12 17 1 0
BITMAP
0700
0D00
1980
2040
0000
1FC0
79E0
70F0
E0F0
E070
E070
E070
F070
F070
70E0
79E0
1F80
ENDCHAR

STARTCHAR ohungarumlaut
ENCODING 245
SWIDTH 556 0
DWIDTH 14 0
BBX 12 17 1 0
BITMAP
0C60
1CE0
3180
6600
0000
1FC0
79E0
70F0
E0F0
E070
E070
E070
F070
F070
70E0
79E0
1F80
ENDCHAR

STARTCHAR odieresis
ENCODING 246
SWIDTH 556 0
DWIDTH 14 0
BBX 12 16 1 0
BITMAP
39C0
39C0
39C0
0000
1FC0
79E0
70F0
E0F0
E070
E070
E070
F070
F070
70E0
79E0
1F80
ENDCHAR

STARTCHAR divide
ENCODING 247
SWIDTH 606 0
DWIDTH 15 0
BBX 13 11 1 3
BITMAP
0700
0700
0700
0000
FFF8
FFF8
0000
0000
0700
0700
0700
ENDCHAR

STARTCHAR rcaron
ENCODING 248
SWIDTH 389 0
DWIDTH 10 0
BBX 9 17 0 0
BITMAP
4180
3200
1E00
1C00
0000
0980
FB80
3B80
3C80
3800
3800
3800
3800
3800
3800
3800
FE00
ENDCHAR

STARTCHAR uring
ENCODING 249
SWIDTH 611 0
DWIDTH 15 0
BBX 15 18 0 0
BITMAP
0380
06C0
0440
06C0
0380
0000
1818
F8F8
3838
3838
3838
3838
3838
3838
3838
3CF8
3FBC
1F3E
ENDCHAR

STARTCHAR uacute
ENCODING 250
SWIDTH 611 0
DWIDTH 15 0
BBX 14 17 0 0
BITMAP
00C0
01C0
0300
0C00
0000
1830
F9F0
3870
3870
3870
3870
3870
3870
3870
3CF0
3F78
1E7C
ENDCHAR

STARTCHAR uhungarumlaut
ENCODING 251
SWIDTH 611 0
DWIDTH 15 0
BBX 14 17 0 0
BITMAP
0670
0E60
0CC0
3300
0000
1830
F9F0
3870
3870
3870
3870
3870
3870
3870
3CF0
3F78
1E7C
ENDCHAR

STARTCHAR udieresis
ENCODING 252
SWIDTH 611 0
DWIDTH 15 0
BBX 14 16 1 0
BITMAP
1CE0
1CE0
1CE0
0000
1830
F9F0
3870
3870
3870
3870
3870
3870
3870
3CF0
3F78
1E7C
ENDCHAR

STARTCHAR yacute
ENCODING 253
SWIDTH 556 0
DWIDTH 14 0
BBX 14 23 0 -6
BITMAP
01C0
0380
0700
0C00
0000
FE7C
3C18
3C30
1C30
1E20
0E60
0E40
0FC0
0780
0780
0380
0300
0300
0200
0600
4C00
7C00
7800
ENDCHAR

STARTCHAR tcommaaccent
ENCODING 254
SWIDTH 333 0
DWIDTH 8 0
BBX 9 22 0 -6
BITMAP
1800
3800
3800
3800
3800
FF80
3800
3800
3800
3800
3800
3800
3800
3C00
3F00
1E00
0000
0400
1C00
1800
1000
3000
ENDCHAR

STARTCHAR dotaccent
ENCODING 255
SWIDTH 333 0
DWIDTH 8 0
BBX 3 3 3 14
BITMAP
E0
E0
E0
ENDCHAR
ENDFONT
